<svg xmlns="http://www.w3.org/2000/svg" viewBox="0 0 900 620">
  <rect width="900" height="620" fill="#d7cebc"/>
  <path d="M0 470 C170 410 330 400 520 430 C672 454 764 420 900 356 L900 620 L0 620Z" fill="#b9ad73"/>
  <path d="M390 0 C352 132 368 250 438 352 C486 424 514 504 492 620" fill="none" stroke="#527f8a" stroke-width="80" opacity=".42"/>
  <path d="M420 0 C384 138 402 250 466 348 C510 416 538 506 518 620" fill="none" stroke="#4f8190" stroke-width="15"/>
  <g fill="#526b3d">
    <circle cx="210" cy="322" r="38"/><circle cx="250" cy="344" r="26"/><circle cx="660" cy="302" r="42"/><circle cx="702" cy="336" r="28"/>
  </g>
  <g fill="#ad6248" opacity=".8">
    <ellipse cx="452" cy="376" rx="58" ry="26" transform="rotate(62 452 376)"/>
    <ellipse cx="500" cy="494" rx="48" ry="22" transform="rotate(78 500 494)"/>
  </g>
  <text x="42" y="70" fill="#312f29" font-family="Segoe UI, Arial" font-size="34" font-weight="700">Site photo placeholder B</text>
  <text x="42" y="112" fill="#6f6758" font-family="Segoe UI, Arial" font-size="22">Central drainage line</text>
</svg>
