<svg xmlns="http://www.w3.org/2000/svg" viewBox="0 0 1200 760">
  <rect width="1200" height="760" fill="#d8ceba"/>
  <path d="M46 682 145 92 588 42 1096 126 1158 648 766 722Z" fill="#d6c790" stroke="#2f3427" stroke-width="9"/>
  <g fill="none" stroke="#a86d4d" stroke-width="9" opacity=".95">
    <path d="M124 524 C272 438 398 404 538 424 C694 446 824 390 1042 278"/>
    <path d="M112 574 C288 492 422 466 560 484 C718 504 872 450 1086 342"/>
    <path d="M154 474 C288 380 404 346 540 366 C688 388 800 334 986 228"/>
  </g>
  <path d="M228 620 C358 536 482 500 616 500 C758 500 884 420 1042 306" fill="none" stroke="#526b3d" stroke-width="56" stroke-linecap="round" opacity=".72"/>
  <path d="M180 158 C344 238 500 264 650 238 C790 214 890 224 1032 274" fill="none" stroke="#526b3d" stroke-width="36" stroke-linecap="round" opacity=".54"/>
  <g fill="none" stroke="#527f8a" stroke-width="13" stroke-linecap="round">
    <path d="M320 126 C342 274 378 396 470 510 C536 592 620 650 710 704"/>
    <path d="M830 118 C800 270 812 420 900 540 C958 616 1034 660 1112 692"/>
  </g>
  <g fill="#f5f0e6" stroke="#6f5b49" stroke-width="5">
    <rect x="460" y="330" width="82" height="54"/><rect x="556" y="346" width="48" height="34"/>
  </g>
  <text x="76" y="78" fill="#3b382f" font-family="Segoe UI, Arial" font-size="34" font-weight="700">Concept Regeneration Plan Placeholder</text>
  <text x="78" y="124" fill="#6f6758" font-family="Segoe UI, Arial" font-size="22">Replace with final concept plan, work zones and treatment labels</text>
</svg>
