<svg xmlns="http://www.w3.org/2000/svg" viewBox="0 0 1200 760">
  <rect width="1200" height="760" fill="#d8ceb9"/>
  <path d="M40 690 205 80 604 35 1110 154 1162 594 806 721Z" fill="#d8c98e" stroke="#2f3427" stroke-width="10"/>
  <path d="M252 93 230 648M570 46 500 712M884 101 814 718" stroke="#b8a86e" stroke-width="6"/>
  <path d="M68 510 C220 448 344 434 476 470 C665 521 822 486 1128 330" fill="none" stroke="#b98253" stroke-width="18" stroke-linecap="round"/>
  <path d="M120 190 C284 260 444 280 604 242 C780 202 918 210 1082 286" fill="none" stroke="#8f7e58" stroke-width="6" stroke-dasharray="22 16"/>
  <g fill="#6a7a4d">
    <circle cx="178" cy="598" r="34"/><circle cx="220" cy="620" r="24"/><circle cx="961" cy="212" r="36"/>
    <circle cx="994" cy="250" r="22"/><circle cx="718" cy="602" r="30"/><circle cx="760" cy="618" r="22"/>
  </g>
  <g fill="#f5f0e6" stroke="#6f5b49" stroke-width="5">
    <rect x="455" y="340" width="76" height="54"/><rect x="544" y="352" width="46" height="36"/>
  </g>
  <text x="76" y="78" fill="#3b382f" font-family="Segoe UI, Arial" font-size="34" font-weight="700">Property Overview Placeholder</text>
  <text x="78" y="124" fill="#6f6758" font-family="Segoe UI, Arial" font-size="22">Replace with aerial image, boundary and paddock annotation</text>
</svg>
