<svg xmlns="http://www.w3.org/2000/svg" viewBox="0 0 1200 760">
  <rect width="1200" height="760" fill="#d7cfbc"/>
  <path d="M46 110 1148 78 1110 690 86 710Z" fill="#d8c98e" stroke="#2f3427" stroke-width="8"/>
  <g fill="none" stroke="#4f8190" stroke-width="14" stroke-linecap="round" opacity=".92">
    <path d="M184 92 C240 230 276 342 354 452 C430 560 538 628 682 706"/>
    <path d="M830 100 C798 226 788 342 828 466 C862 572 940 632 1070 684"/>
    <path d="M494 92 C532 218 552 336 520 442 C492 538 430 612 340 704"/>
  </g>
  <g fill="none" stroke="#88aeb2" stroke-width="8" stroke-dasharray="20 16" opacity=".9">
    <path d="M64 344 C204 326 356 346 482 408 C620 476 760 498 1110 434"/>
    <path d="M112 554 C280 520 440 532 580 584 C722 638 874 640 1088 592"/>
  </g>
  <g fill="#ad6248" opacity=".92">
    <ellipse cx="350" cy="454" rx="44" ry="28" transform="rotate(38 350 454)"/>
    <ellipse cx="827" cy="470" rx="52" ry="26" transform="rotate(70 827 470)"/>
    <ellipse cx="525" cy="437" rx="36" ry="22" transform="rotate(-64 525 437)"/>
  </g>
  <text x="76" y="78" fill="#3b382f" font-family="Segoe UI, Arial" font-size="34" font-weight="700">Water Movement Placeholder</text>
  <text x="78" y="124" fill="#6f6758" font-family="Segoe UI, Arial" font-size="22">Replace with drainage, wet areas and erosion observations</text>
</svg>
